<svg id="wave" style="transform:rotate(0deg); transition: 0.3s" viewBox="0 0 1440 430" version="1.1" xmlns="http://www.w3.org/2000/svg"><defs><linearGradient id="sw-gradient-0" x1="0" x2="0" y1="1" y2="0"><stop stop-color="rgba(255, 0, 220.808, 1)" offset="0%"></stop><stop stop-color="rgba(19.184, 6.721, 23.088, 1)" offset="100%"></stop></linearGradient></defs><path style="transform:translate(0, 0px); opacity:1" fill="url(#sw-gradient-0)" d="M0,129L26.7,121.8C53.3,115,107,100,160,93.2C213.3,86,267,86,320,93.2C373.3,100,427,115,480,164.8C533.3,215,587,301,640,336.8C693.3,373,747,358,800,329.7C853.3,301,907,258,960,222.2C1013.3,186,1067,158,1120,157.7C1173.3,158,1227,186,1280,164.8C1333.3,143,1387,72,1440,71.7C1493.3,72,1547,143,1600,150.5C1653.3,158,1707,100,1760,107.5C1813.3,115,1867,186,1920,229.3C1973.3,272,2027,287,2080,301C2133.3,315,2187,330,2240,279.5C2293.3,229,2347,115,2400,86C2453.3,57,2507,115,2560,114.7C2613.3,115,2667,57,2720,93.2C2773.3,129,2827,258,2880,258C2933.3,258,2987,129,3040,107.5C3093.3,86,3147,172,3200,236.5C3253.3,301,3307,344,3360,365.5C3413.3,387,3467,387,3520,336.8C3573.3,287,3627,186,3680,121.8C3733.3,57,3787,29,3813,14.3L3840,0L3840,430L3813.3,430C3786.7,430,3733,430,3680,430C3626.7,430,3573,430,3520,430C3466.7,430,3413,430,3360,430C3306.7,430,3253,430,3200,430C3146.7,430,3093,430,3040,430C2986.7,430,2933,430,2880,430C2826.7,430,2773,430,2720,430C2666.7,430,2613,430,2560,430C2506.7,430,2453,430,2400,430C2346.7,430,2293,430,2240,430C2186.7,430,2133,430,2080,430C2026.7,430,1973,430,1920,430C1866.7,430,1813,430,1760,430C1706.7,430,1653,430,1600,430C1546.7,430,1493,430,1440,430C1386.7,430,1333,430,1280,430C1226.7,430,1173,430,1120,430C1066.7,430,1013,430,960,430C906.7,430,853,430,800,430C746.7,430,693,430,640,430C586.7,430,533,430,480,430C426.7,430,373,430,320,430C266.7,430,213,430,160,430C106.7,430,53,430,27,430L0,430Z"></path></svg>
