<svg id="wave" style="transform:rotate(180deg); transition: 0.3s" viewBox="0 0 1440 360" version="1.1" xmlns="http://www.w3.org/2000/svg"><defs><linearGradient id="sw-gradient-0" x1="0" x2="0" y1="1" y2="0"><stop stop-color="rgba(255, 0, 220.808, 1)" offset="0%"></stop><stop stop-color="rgba(19.184, 6.721, 23.088, 1)" offset="100%"></stop></linearGradient></defs><path style="transform:translate(0, 0px); opacity:1" fill="url(#sw-gradient-0)" d="M0,108L17.1,102C34.3,96,69,84,103,78C137.1,72,171,72,206,78C240,84,274,96,309,138C342.9,180,377,252,411,282C445.7,312,480,300,514,276C548.6,252,583,216,617,186C651.4,156,686,132,720,132C754.3,132,789,156,823,138C857.1,120,891,60,926,60C960,60,994,120,1029,126C1062.9,132,1097,84,1131,90C1165.7,96,1200,156,1234,192C1268.6,228,1303,240,1337,252C1371.4,264,1406,276,1440,234C1474.3,192,1509,96,1543,72C1577.1,48,1611,96,1646,96C1680,96,1714,48,1749,78C1782.9,108,1817,216,1851,216C1885.7,216,1920,108,1954,90C1988.6,72,2023,144,2057,198C2091.4,252,2126,288,2160,306C2194.3,324,2229,324,2263,282C2297.1,240,2331,156,2366,102C2400,48,2434,24,2451,12L2468.6,0L2468.6,360L2451.4,360C2434.3,360,2400,360,2366,360C2331.4,360,2297,360,2263,360C2228.6,360,2194,360,2160,360C2125.7,360,2091,360,2057,360C2022.9,360,1989,360,1954,360C1920,360,1886,360,1851,360C1817.1,360,1783,360,1749,360C1714.3,360,1680,360,1646,360C1611.4,360,1577,360,1543,360C1508.6,360,1474,360,1440,360C1405.7,360,1371,360,1337,360C1302.9,360,1269,360,1234,360C1200,360,1166,360,1131,360C1097.1,360,1063,360,1029,360C994.3,360,960,360,926,360C891.4,360,857,360,823,360C788.6,360,754,360,720,360C685.7,360,651,360,617,360C582.9,360,549,360,514,360C480,360,446,360,411,360C377.1,360,343,360,309,360C274.3,360,240,360,206,360C171.4,360,137,360,103,360C68.6,360,34,360,17,360L0,360Z"></path></svg>
